<svg xmlns="http://www.w3.org/2000/svg" width="52" height="52" viewBox="0 0 52 52">
    <g fill="none" fill-rule="evenodd">
        <g>
            <g>
                <g transform="translate(-363 -860) translate(154 861) translate(210)">
                    <circle cx="25" cy="25" r="25" fill="#FFF" stroke="#AFB3B6"/>
                    <path fill="#AFB3B6" d="M14.76 33.567l.003.001-.004-.001zm1.75.468c.784.37 1.647.653 2.625.863.968.208 1.992.29 3.126.251 1.523-.052 2.982-.356 4.337-.904 1.46-.59 2.77-1.455 3.896-2.57.818-.81 1.53-1.744 2.118-2.776.54-.947.96-1.953 1.251-2.99.353-1.258.507-2.514.458-3.732-.012-.302.098-.539.338-.723.23-.177.456-.362.671-.557.14-.127.274-.258.404-.394-.4.101-.78.164-1.157.193-.204.012-.393-.107-.462-.3-.068-.192.001-.407.17-.524.47-.325.85-.694 1.15-1.116-.502.207-1.04.376-1.629.512-.285.067-.533-.006-.738-.215-.572-.58-1.258-.948-2.042-1.094-1.41-.265-2.638.076-3.652 1.013-.937.866-1.382 1.959-1.32 3.248.008.168.027.336.047.513l.031.283c.014.133-.032.264-.125.36-.093.096-.224.15-.356.137-3.67-.252-6.796-1.74-9.302-4.425-.664 1.948-.177 3.534 1.503 4.952.153.129.203.344.123.527-.08.184-.272.295-.472.268-.389-.05-.733-.092-1.076-.187-.122-.034-.242-.074-.358-.116.075.441.247.94.477 1.35.592 1.052 1.485 1.73 2.73 2.074.202.055.34.242.333.451-.007.21-.157.387-.362.43-.39.08-.716.125-1.027.142-.108.006-.218.01-.328.01.287.543.682 1.006 1.183 1.38.681.51 1.454.788 2.362.85.188.013.347.14.402.32.055.18-.008.376-.157.49-1.547 1.192-3.281 1.863-5.173 2.006zm5.211 2.03c-.988 0-1.9-.093-2.776-.281-1.208-.26-2.258-.626-3.21-1.122-.277-.144-.552-.292-.828-.442l-.383-.206c-.207-.112-.295-.364-.2-.58.077-.18.274-.34.477-.318 2.015.187 3.803-.204 5.43-1.187-.619-.173-1.187-.452-1.699-.834-.825-.619-1.416-1.43-1.756-2.416-.048-.139-.026-.291.059-.41.085-.12.222-.19.369-.19h.162c-.664-.444-1.202-1.03-1.61-1.753-.447-.796-.696-1.808-.62-2.516.016-.14.094-.263.213-.337.12-.073.266-.087.397-.038.1.037.198.077.297.116l.143.056c-1.212-1.597-1.347-3.46-.4-5.554.065-.141.196-.24.35-.261.155-.022.308.036.408.154 2.335 2.741 5.162 4.256 8.628 4.617-.01-.101-.018-.2-.023-.301-.074-1.568.468-2.898 1.61-3.955 1.235-1.141 2.726-1.558 4.434-1.239.947.178 1.778.616 2.473 1.303.864-.205 1.604-.486 2.265-.86.06-.033.122-.063.2-.1l.106-.05c.164-.079.36-.052.495.068.138.12.189.31.131.483-.193.581-.469 1.1-.832 1.563.264-.087.544-.19.844-.314.182-.076.395-.022.522.132.126.154.137.372.027.538-.437.655-.922 1.224-1.485 1.735-.228.208-.468.405-.712.593.049 1.318-.117 2.656-.492 3.994-.31 1.109-.76 2.183-1.336 3.194-.628 1.103-1.391 2.103-2.268 2.972-1.211 1.2-2.622 2.13-4.194 2.766-1.453.587-3.016.913-4.645.97-.193.006-.383.01-.57.01z"/>
                </g>
            </g>
        </g>
    </g>
</svg>
