<svg xmlns="http://www.w3.org/2000/svg" width="52" height="52" viewBox="0 0 52 52">
    <g fill="none" fill-rule="evenodd">
        <g>
            <g>
                <g transform="translate(-223 -860) translate(154 861) translate(70)">
                    <circle cx="25" cy="25" r="25" fill="#FFF" stroke="#AFB3B6"/>
                    <g fill="#AFB3B6">
                        <path d="M15.178 11.004c0-2.227-1.79-4.019-4.018-4.02-2.221 0-4.016 1.792-4.017 4.013-.002 2.224 1.788 4.021 4.007 4.022 2.235.002 4.028-1.786 4.028-4.015m-4.016 4.908c-2.715 0-4.914-2.207-4.912-4.931.001-2.687 2.215-4.892 4.91-4.89 2.707.001 4.914 2.21 4.911 4.913-.003 2.702-2.21 4.909-4.909 4.908M16.963 6.09c-.49 0-.891-.4-.892-.888 0-.491.401-.896.893-.897.497-.001.894.404.893.91-.001.48-.405.876-.894.876" transform="translate(14.286 13.552)"/>
                        <path d="M11.09 21.243h4.45c.53 0 1.054-.058 1.566-.203 1.162-.33 2.123-.97 2.87-1.923.8-1.024 1.184-2.197 1.184-3.498l-.001-8.985c0-.377-.03-.752-.103-1.123-.212-1.086-.697-2.032-1.47-2.818-1.093-1.113-2.427-1.675-3.985-1.678-3.012-.004-6.023 0-9.034-.001-.353 0-.702.028-1.048.096-1.464.29-2.634 1.045-3.498 2.264-.691.973-1.01 2.068-1.009 3.263.003 2.992 0 5.984.003 8.976 0 .288.017.579.056.864.106.789.377 1.52.804 2.19.607.95 1.426 1.655 2.455 2.11.73.324 1.498.468 2.295.466h4.466zM.005 11.126c0-1.537-.011-3.074.004-4.612.015-1.583.538-2.987 1.561-4.193C2.59 1.118 3.884.381 5.432.098 5.812.028 6.197 0 6.584 0l8.988.001c1.574 0 2.98.493 4.195 1.496 1.178.974 1.93 2.217 2.255 3.717.098.452.143.91.143 1.374-.001 3.042.004 6.085-.003 9.128-.003 1.414-.429 2.697-1.262 3.837-.838 1.15-1.939 1.945-3.288 2.387-.63.207-1.277.311-1.94.312-3.053.001-6.107.007-9.161-.002-1.522-.005-2.881-.498-4.065-1.458-1.134-.92-1.88-2.094-2.244-3.512-.138-.536-.198-1.084-.198-1.637v-4.517z" transform="translate(14.286 13.552)"/>
                    </g>
                </g>
            </g>
        </g>
    </g>
</svg>
