<svg xmlns="http://www.w3.org/2000/svg" width="52" height="52" viewBox="0 0 52 52">
    <g fill="none" fill-rule="evenodd">
        <g>
            <g transform="translate(-153 -860) translate(154 861)">
                <circle cx="25" cy="25" r="25" fill="#FFF" stroke="#333"/>
                <path fill="#333" d="M36.01 29.018h-3.528c.214-1.13.33-2.329.33-3.572 0-1.242-.116-2.442-.33-3.571h3.529c.38 1.123.596 2.321.596 3.571s-.216 2.449-.596 3.572zm-7.04 7.01c1.495-1.339 2.673-3.505 3.313-6.117h3.386c-1.261 2.875-3.698 5.115-6.7 6.118zm-13.746-6.117h3.386c.64 2.612 1.818 4.778 3.313 6.118-3.002-1.003-5.438-3.243-6.699-6.118zm-.342-8.036h3.529c-.215 1.13-.33 2.329-.33 3.571 0 1.243.115 2.442.33 3.572h-3.529c-.38-1.123-.596-2.322-.596-3.572s.216-2.448.596-3.571zm7.041-7.01c-1.495 1.339-2.673 3.505-3.313 6.117h-3.386c1.26-2.875 3.697-5.115 6.7-6.118zm3.97 6.117v-6.658c2.455.292 4.538 2.946 5.483 6.658h-5.483zm0 15.587V29.91h5.483c-.945 3.712-3.028 6.366-5.483 6.658zM25 29.91v6.658c-2.456-.292-4.538-2.946-5.483-6.658H25zm0-15.587v6.658h-5.483c.945-3.712 3.027-6.366 5.483-6.658zm-6.027 11.122c0-1.25.125-2.448.347-3.571H25v7.143h-5.68c-.222-1.123-.347-2.322-.347-3.572zm12.947 0c0 1.25-.125 2.449-.347 3.572h-5.68v-7.143h5.68c.222 1.123.347 2.321.347 3.571zm3.749-4.464h-3.386c-.64-2.612-1.818-4.778-3.314-6.118 3.002 1.003 5.439 3.243 6.7 6.118zm-10.223-7.59c-6.646 0-12.053 5.408-12.053 12.054 0 6.647 5.407 12.054 12.053 12.054 6.647 0 12.054-5.407 12.054-12.054 0-6.646-5.407-12.053-12.054-12.053z"/>
            </g>
        </g>
    </g>
</svg>
