<svg xmlns="http://www.w3.org/2000/svg" width="52" height="52" viewBox="0 0 52 52">
    <g fill="none" fill-rule="evenodd">
        <g>
            <g>
                <g transform="translate(-293 -860) translate(154 861) translate(140)">
                    <circle cx="25" cy="25" r="25" fill="#FFF" stroke="#AFB3B6"/>
                    <path fill="#AFB3B6" d="M22.784 36.563h3.644l.005-12.035h3.408l.346-3.207h-3.08c-.102.004-.327.012-.505-.16-.082-.079-.178-.22-.174-.449.005-.301.009-.603.012-.904.005-.573.012-1.145.034-1.717.026-.68.492-1.22 1.157-1.343.226-.042.496-.085.78-.09.603-.012 1.207-.014 1.812-.01-.005-.922-.004-1.833-.003-2.744v-.467l-3.593.003-.15.032c-.16.033-.32.063-.482.092-.34.062-.66.12-.963.214-.744.231-1.305.699-1.667 1.39-.33.628-.505 1.327-.535 2.134-.033.898-.036 1.817-.038 2.706l-.002.622c0 .09-.001.333-.192.517-.19.183-.441.178-.52.18-.454-.006-.908-.004-1.364-.005h-1.005c.004.82.003 1.63.003 2.44v.772h3.075l-.003 12.03zm4.581.937h-5.541l.005-1.544V25.47h-3.036l-.03-.51c-.005-.061-.008-.114-.008-.167v-1.03c0-.9 0-1.797-.005-2.695 0-.08-.002-.322.186-.505s.44-.176.52-.18c.418.004.837.004 1.256.002.373 0 .747 0 1.121.002l.002-.382c.002-.896.004-1.823.038-2.737.035-.934.25-1.785.64-2.528.483-.92 1.233-1.544 2.229-1.854.36-.112.726-.179 1.079-.243.153-.027.306-.056.458-.087l.308-.056h4.631l-.033.576c-.003.042-.006.083-.007.123v.705c-.001 1-.002 2 .004 2.999 0 .08.002.321-.186.505-.188.182-.438.176-.52.18-.682-.008-1.366-.007-2.047.006-.214.004-.434.04-.62.074-.228.042-.369.214-.379.46-.021.561-.027 1.125-.033 1.69l-.006.566h3.859l-.547 5.08H27.39l-.004 11.357c0 .054-.002.108-.004.162l-.017.517z"/>
                </g>
            </g>
        </g>
    </g>
</svg>
