<svg width="52" height="52" viewBox="0 0 52 52" xmlns="http://www.w3.org/2000/svg" xmlns:xlink="http://www.w3.org/1999/xlink">
    <defs>
        <path id="srbtsitssa" d="M0 0h5.859v5.625H0z"/>
    </defs>
    <g transform="translate(1 1)" fill="none" fill-rule="evenodd">
        <circle stroke="#AFB3B6" cx="25" cy="25" r="25"/>
        <path d="M32.1 32.912h3.827l.001-1.784c.001-2.09.003-4.18-.003-6.27-.005-1.547-.268-2.747-.827-3.775-.538-.99-1.295-1.659-2.315-2.043-.85-.32-1.774-.416-2.748-.286-.983.132-1.768.522-2.397 1.194-.187.196-.358.409-.536.627l-1.22 1.46V19.91c-.001-.289-.002-.576 0-.864-1.048.003-2.091.003-3.134.003h-.677v13.858h3.812v-1.584c-.001-2.023-.002-4.045.005-6.067.002-.397.005-.89.14-1.356.382-1.317 1.524-2.262 2.84-2.351 1.404-.094 2.478.603 2.936 1.917.261.747.296 1.497.296 2.13v7.315zM36.453 34h-5.424v-8.403c0-.542-.027-1.175-.233-1.767-.374-1.067-1.219-1.238-1.856-1.195-1.007.069-1.673.84-1.886 1.575-.092.317-.093.707-.095 1.052-.008 2.02-.007 4.04-.006 6.061v2.673H21V17.962h1.748c1.153.002 2.304.003 3.455-.004.082-.002.354 0 .558.208.203.209.199.48.197.57l-.006.366c.782-.79 1.771-1.269 2.943-1.425 1.15-.153 2.245-.037 3.26.344 1.253.471 2.223 1.324 2.881 2.536.649 1.195.954 2.561.96 4.297.006 2.092.004 4.183.003 6.275l-.047 2.817-.5.054zM13.96 18.723c.002 4.73.002 9.448 0 14.166.937-.005 1.867-.003 2.796-.003h.618v-14.16h-.617c-.932 0-1.865.001-2.797-.003zM13.66 34a.613.613 0 0 1-.48-.206c-.18-.21-.18-.478-.18-.578.002-4.94.002-9.88 0-14.82-.002-.09-.002-.366.18-.575.18-.21.419-.211.495-.21 1.027.006 2.054.005 3.081.005h1.576v16.38h-1.577c-1.026 0-2.054-.002-3.08.004h-.015z" fill="#AFB3B6" fill-rule="nonzero"/>
        <g transform="translate(13 10)">
            <mask id="ie9awjsr7b" fill="#fff">
                <use xlink:href="#srbtsitssa"/>
            </mask>
            <path d="M3.012.976c-.252 0-.518.043-.8.13-.541.165-.961.565-1.152 1.098a1.834 1.834 0 0 0 .187 1.61c.352.556.885.821 1.675.836h.015c.147-.011.634-.083.84-.16.663-.246 1.027-.708 1.11-1.41.09-.756-.137-1.318-.696-1.72A1.968 1.968 0 0 0 3.01.976zm-.108 4.65C1.8 5.604.974 5.173.449 4.345a2.822 2.822 0 0 1-.283-2.479A2.716 2.716 0 0 1 1.938.171c1.05-.32 1.993-.19 2.8.391.849.61 1.228 1.521 1.095 2.635-.126 1.058-.741 1.843-1.732 2.21-.008.004-.753.236-1.197.21v.008z" fill="#AFB3B6" fill-rule="nonzero" mask="url(#ie9awjsr7b)"/>
        </g>
    </g>
</svg>
