<svg xmlns="http://www.w3.org/2000/svg" viewBox="0 0 131 70"><path fill="#9bcc3e" d="M80.5 31.7c-0.9-1-1.3-2.2-1.3-3.6 0-1.5 0.4-2.7 1.3-3.6 0.9-1 2-1.4 3.3-1.4 1.3 0 2.4 0.6 3.1 1.7v-1.5h2.5V33h-2.5v-1.7c-0.8 1.2-1.8 1.8-3.1 1.8S81.4 32.6 80.5 31.7zM86.1 30.1c0.5-0.5 0.8-1.2 0.8-2.1 0-0.9-0.3-1.6-0.8-2.1 -0.5-0.5-1.2-0.8-1.8-0.8s-1.3 0.3-1.8 0.8c-0.5 0.5-0.8 1.2-0.8 2.1 0 0.9 0.3 1.6 0.8 2.2 0.5 0.5 1.1 0.8 1.8 0.8C85 30.9 85.6 30.7 86.1 30.1zM91.9 31.7c-0.9-0.9-1.3-2.2-1.3-3.7 0-1.5 0.5-2.8 1.3-3.7 0.9-0.9 2.1-1.4 3.5-1.4 1.2 0 2.2 0.3 3 0.9 0.8 0.6 1.3 1.4 1.6 2.5h-2.7c-0.3-0.8-1-1.2-1.9-1.2 -0.7 0-1.3 0.3-1.7 0.8 -0.4 0.5-0.6 1.3-0.6 2.2 0 0.9 0.2 1.7 0.6 2.2 0.4 0.5 1 0.8 1.7 0.8 1 0 1.6-0.4 1.9-1.2h2.7c-0.3 1-0.8 1.8-1.7 2.5 -0.8 0.6-1.8 0.9-3 0.9C94 33.1 92.9 32.6 91.9 31.7zM105.4 30.9h1V33H105c-1 0-1.8-0.2-2.3-0.7 -0.5-0.5-0.8-1.2-0.8-2.3v-4.7h-1v-2.2h1v-2.5h2.5v2.5h2.2l-2.2 2.2v4.7c0 0.3 0.1 0.5 0.2 0.7C104.7 30.8 105 30.9 105.4 30.9zM107.4 32.9v-9.9h2.5v9.9H107.4zM107.4 21.9v-2.5h2.5v2.5H107.4zM110.5 23.1h2.7l2.3 7.1c0.1 0.2 0.3 0.2 0.4 0l2.3-7.1h2.7l-3.6 9.9h-3.2L110.5 23.1zM79.1 39.3h2.7l2.3 7.1c0.1 0.2 0.3 0.2 0.4 0l2.3-7.1h2.7l-3.6 9.9h-3.2L79.1 39.3zM125.8 33.1c-1.4 0-2.6-0.5-3.5-1.4 -0.9-0.9-1.3-2.2-1.3-3.7 0-1.5 0.5-2.8 1.4-3.7 0.9-0.9 2.1-1.4 3.5-1.4 1.5 0 2.6 0.5 3.6 1.3 0.9 0.9 1.4 2.1 1.4 3.6 0 0.3 0 0.7-0.1 1h-7.2c0.1 0.7 0.3 1.2 0.7 1.5s1 0.6 1.6 0.6c0.9 0 1.5-0.3 1.9-1.1h2.7c-0.3 0.9-0.8 1.7-1.7 2.3C128 32.8 127 33.1 125.8 33.1zM127.4 25.6c-0.5-0.4-1-0.6-1.6-0.6 -0.6 0-1.2 0.2-1.6 0.6s-0.7 0.9-0.8 1.6h4.7C128.1 26.5 127.9 26 127.4 25.6zM90.9 47.9c-0.9-1-1.3-2.2-1.3-3.6 0-1.5 0.4-2.7 1.3-3.6s2-1.4 3.3-1.4c1.3 0 2.4 0.6 3.1 1.7v-1.5h2.5v9.9h-2.5v-1.7c-0.7 1.2-1.8 1.8-3.1 1.8S91.8 48.8 90.9 47.9zM96.5 46.3c0.5-0.5 0.8-1.2 0.8-2.1 0-0.9-0.3-1.6-0.8-2.1 -0.5-0.5-1.2-0.8-1.8-0.8 -0.7 0-1.3 0.3-1.8 0.8 -0.5 0.5-0.8 1.2-0.8 2.1 0 0.9 0.3 1.6 0.8 2.2 0.5 0.5 1.1 0.8 1.8 0.8C95.4 47.1 96 46.9 96.5 46.3zM101.5 49.1V37.4l2.5-2.5v14.3L101.5 49.1 101.5 49.1zM112.5 39.3h2.5v9.9h-2.5v-1.5c-0.6 1.1-1.7 1.6-3.1 1.6 -1.1 0-2-0.4-2.7-1.1 -0.7-0.7-1.1-1.8-1.1-3.1v-5.8h2.5v5.5c0 0.8 0.2 1.4 0.6 1.8 0.4 0.4 0.9 0.6 1.6 0.6 0.7 0 1.2-0.2 1.6-0.6s0.6-1 0.6-1.8L112.5 39.3 112.5 39.3zM121.1 49.3c-1.4 0-2.6-0.5-3.5-1.4 -0.9-0.9-1.3-2.2-1.3-3.7 0-1.5 0.5-2.8 1.4-3.7 0.9-0.9 2.1-1.4 3.5-1.4 1.5 0 2.6 0.5 3.6 1.3 0.9 0.9 1.4 2.1 1.4 3.6 0 0.3 0 0.7-0.1 1h-7.2c0.1 0.7 0.3 1.2 0.7 1.5 0.4 0.4 1 0.6 1.6 0.6 0.9 0 1.5-0.3 1.9-1.1h2.7c-0.3 0.9-0.8 1.7-1.7 2.3C123.2 49 122.3 49.3 121.1 49.3zM122.7 41.8c-0.5-0.4-1-0.6-1.6-0.6s-1.2 0.2-1.6 0.6c-0.4 0.4-0.7 0.9-0.8 1.6h4.7C123.4 42.8 123.2 42.2 122.7 41.8z"></path> <path fill="#9bcc3e" d="M0 0v70h70V0H0zM19.6 42c-1.7 1.7-4.4 1.7-6.1 0l-0.5-0.5 -0.6-0.6 -3-3 3-3 3.8-3.8 4.1-4.1c1.7-1.7 4.4-1.7 6.1 0l0.5 0.5 0.6 0.6 3 3 -3 3L23.7 38 19.6 42zM34.6 42.5c-1.7 1.7-4.4 1.7-6.1 0L28 42l-0.6-0.6 -3-3 3-3 3.6-3.6 7.2 7.2L34.6 42.5zM31.8 31.1l3.6-3.6c1.7-1.7 4.4-1.7 6.1 0L42 28l0.6 0.6 3 3 -3 3L39 38.3 31.8 31.1zM57.7 35.2L53.8 39l-4.1 4.1c-1.7 1.7-4.4 1.7-6.1 0l-0.5-0.5L42.5 42l-3-3 3-3 3.8-3.8 4.1-4.1c1.7-1.7 4.4-1.7 6.1 0l0.5 0.5 0.6 0.6 3 3L57.7 35.2z"></path></svg>
